<svg width="300" height="200" xmlns="http://www.w3.org/2000/svg">
  <!-- Background -->
  <rect width="300" height="200" fill="#f8f9fa"/>
  
  <!-- Rice bag -->
  <rect x="50" y="40" width="200" height="120" fill="#8B4513" stroke="#654321" stroke-width="3" rx="10"/>
  
  <!-- Rice grains pattern -->
  <g fill="#F5F5DC" stroke="#E0E0E0">
    <ellipse cx="70" cy="60" rx="4" ry="6"/>
    <ellipse cx="90" cy="65" rx="4" ry="6"/>
    <ellipse cx="110" cy="55" rx="4" ry="6"/>
    <ellipse cx="130" cy="70" rx="4" ry="6"/>
    <ellipse cx="150" cy="60" rx="4" ry="6"/>
    <ellipse cx="170" cy="65" rx="4" ry="6"/>
    <ellipse cx="190" cy="55" rx="4" ry="6"/>
    <ellipse cx="210" cy="70" rx="4" ry="6"/>
    <ellipse cx="230" cy="60" rx="4" ry="6"/>
    
    <ellipse cx="80" cy="85" rx="4" ry="6"/>
    <ellipse cx="100" cy="90" rx="4" ry="6"/>
    <ellipse cx="120" cy="80" rx="4" ry="6"/>
    <ellipse cx="140" cy="95" rx="4" ry="6"/>
    <ellipse cx="160" cy="85" rx="4" ry="6"/>
    <ellipse cx="180" cy="90" rx="4" ry="6"/>
    <ellipse cx="200" cy="80" rx="4" ry="6"/>
    <ellipse cx="220" cy="95" rx="4" ry="6"/>
  </g>
  
  <!-- Product label -->
  <rect x="60" y="100" width="180" height="40" fill="white" stroke="#ddd" rx="5"/>
  <text x="150" y="120" text-anchor="middle" font-family="Arial, sans-serif" font-size="16" font-weight="bold" fill="#333">Premium Basmati Rice</text>
  <text x="150" y="135" text-anchor="middle" font-family="Arial, sans-serif" font-size="12" fill="#666">1kg Pack</text>
  
  <!-- Price tag -->
  <rect x="200" y="120" width="80" height="30" fill="#FF6B6B" stroke="#FF4757" stroke-width="2" rx="5"/>
  <text x="240" y="138" text-anchor="middle" font-family="Arial, sans-serif" font-size="14" font-weight="bold" fill="white">₹120/kg</text>
  
  <!-- Brand logo placeholder -->
  <circle cx="80" cy="130" r="15" fill="#732C3F"/>
  <text x="80" y="135" text-anchor="middle" font-family="Arial, sans-serif" font-size="12" font-weight="bold" fill="white">BP</text>
</svg>